<svg width="16" height="16" viewBox="0 0 16 16" fill="none" xmlns="http://www.w3.org/2000/svg">
    <path d="M6.27706 8.4881L4.02982 7.73901C1.67661 6.95461 0.5 6.56241 0.5 5.84165C0.5 5.12089 1.67661 4.72869 4.02982 3.94428L12.543 1.10656C14.1988 0.554629 15.0267 0.278665 15.4637 0.715681C15.9007 1.1527 15.6247 1.98059 15.0728 3.63638L12.2351 12.1496C11.4507 14.5028 11.0585 15.6794 10.3377 15.6794C9.61696 15.6794 9.22476 14.5028 8.44036 12.1495L7.69128 9.90231L12.0448 5.54876C12.4354 5.15823 12.4354 4.52507 12.0448 4.13454C11.6543 3.74402 11.0211 3.74402 10.6306 4.13454L6.27706 8.4881Z" fill="#00373F"/>
</svg>